<?xml version="1.0" encoding="utf-8"?>
<!-- Generator: Adobe Illustrator 25.0.1, SVG Export Plug-In . SVG Version: 6.00 Build 0)  -->
<svg version="1.0" id="Layer_1" xmlns="http://www.w3.org/2000/svg" xmlns:xlink="http://www.w3.org/1999/xlink" x="0px" y="0px"
	 viewBox="0 0 1129 789" style="enable-background:new 0 0 1129 789;" xml:space="preserve">
<style type="text/css">
	.st0{fill:#FFFFFF;}
	.st1{fill:#578BBF;}
	.st2{fill-rule:evenodd;clip-rule:evenodd;fill:#578BBF;}
	.st3{fill-rule:evenodd;clip-rule:evenodd;fill:#618BB3;}
	.st4{fill-rule:evenodd;clip-rule:evenodd;fill:#F8FBFB;}
	.st5{fill-rule:evenodd;clip-rule:evenodd;fill:#7192B3;}
	.st6{fill-rule:evenodd;clip-rule:evenodd;fill:#7B96B1;}
	.st7{fill-rule:evenodd;clip-rule:evenodd;fill:#6F90B2;}
	.st8{fill-rule:evenodd;clip-rule:evenodd;fill:#6489AD;}
	.st9{fill-rule:evenodd;clip-rule:evenodd;fill:#5B8ABE;}
	.st10{fill-rule:evenodd;clip-rule:evenodd;fill:#5989B3;}
	.st11{fill-rule:evenodd;clip-rule:evenodd;fill:#EAF4FA;}
	.st12{fill-rule:evenodd;clip-rule:evenodd;fill:#E5F1F9;}
</style>
<circle class="st0" cx="564.5" cy="394.5" r="363.5"/>
<circle class="st1" cx="564.5" cy="394.5" r="351.2"/>
<path class="st2" d="M221.6,420.2v-46.3c7.2-6.8,7.5-17.3,13.2-24.9c0.4-1.1,0.3-2.3-0.3-3.2c-4.8-5.2-3.6-12.2-5.9-18.2
	c-0.3-3,2.5-5.4,1.2-8.5c0.8-3.4,1.5-6.8,2.3-10.2L232,309l1.2-1.9c1.4-4.7,2.8-9.3,4.2-13.9c13.5-45.1,35.3-85.6,66.5-120.9
	c35-39.5,75.5-71.8,124.5-92.5C453,69.4,478.2,61,505,58.2c4.7-0.5,10.1-1.8,13.2-6.6h68.6c6.4,4.8,14.3,7.2,22.3,6.6
	c8.7-0.4,17,0.9,25.3,2.8C707,77.5,769.3,111.7,819,167.9c35.9,40.6,61.1,86.9,74.9,139.4c5.1,19.5,7.8,39.5,10.1,59.6
	c0.3,2.3-0.8,5.6,3.5,5.4v42.9c-2.7,6.5-3.8,13.5-3.3,20.5c-2.1,11.5-4.1,22.9-6.3,34.3c-6.8,35.3-20.6,67.9-38.8,98.7
	c-12.3,20.8-26.4,40.5-43.9,57.5c-0.8-0.8-1.7-1.5-2.4-2.3c-1.8-2-1.9-7.2-6.2-4.8c-3.6,2-6.5,5.4-5.3,10.4c0.7,3,1.3,6,2,9l0.1-0.1
	c-1.6-0.5-3.1-1.2-4.6-2c-1.8-1.2-3.2-3.6-5.7-1.3c-1.8,1.7-2,4-0.9,6.2c0.6,1.3,1.4,2.4,2.1,3.6c0,0.7,0.1,1.4,0.1,2l-1.6,1.5
	c-0.8-0.2-1.7-0.3-2.5-0.4c-4-0.2-7.4-7.2-11.2-2.5c-4.1,5.1,4.5,6,5.1,10.1c-3.2,4.5-7.8,7.4-12.1,10.7
	c-44,33.3-92.8,55.6-147.4,64.9c-9.2,1.6-19.4-0.2-27.6,6.3h-54.9c-2.5-4-6.4-3.8-10.3-3.3c-10.8-1.3-21.6-1.9-32.2-4
	c-59.3-12-112.1-37.5-158-77c-47.2-40.4-80.4-90.6-100.9-148.9c-8.8-24.9-14.5-50.9-15.8-77.6C224.9,424.1,226.2,420.5,221.6,420.2z
	 M760.2,463l-1.9-1.4c-3.7-2.5-7.3-5.2-12.1-5.1l-3.6-1.4c0-0.3,0.1-0.6,0.3-0.9c-1.4-0.9-2.7-2.5-4.1-2.6
	c-14.2-1.6-28.1,0.4-41.6,5c-3.9,1.3-3.8,4.4-3,7.6l-0.3-0.1c-5.3-2.3-9.8,0.8-14.5,2.4c1.2-2.2,2.4-4.4,3.6-6.5
	c1.4-2.4,3.5-4.8,2-7.7c-1.8-3.4-4.9-1.4-7.5-1.4c0.8-3,3.2-4.6,5.4-6.4c7.8-6.4,17-11.8,23.1-19.6c11-14,20.2-29.3,29.4-44.6
	c8.2-13.7,9.6-27.1,4.3-41.5c-13.4-36.1-27-72.2-40.5-108.3c-0.9-2.5-2-4.7-5-5.3h0.1c1.8-13.3-8.3-23.3-9.9-35.8
	c-0.7-5.1-1.5-10.6-4.5-15.4c-4.8-7.8-8.4-16.2-10.6-25.1c-2.4-9.7-8.6-15.5-15.8-15.7c-8.1-0.2-14.2,5.8-16.9,16.3l0.1-0.1
	c-9-0.3-10.5,8.5-15.2,13.2c-7.1,7-13.4,15.1-15.6,25.4c-0.1,0.5-0.4,0.9-0.9,1.1c-2.3,0-5.1-0.2-6.2,1.9c-5.2,9.8-16,15.7-18.9,27
	c-19.4,0-38.8,0-58.3-0.1c-4,0-7.6-0.4-10.4-4.4c-15.9-23.5-32.2-46.8-47.9-70.4c-4.4-6.7-9.6-11.1-17.6-8.9
	c-7.1,1.9-12.6,7.4-14.5,14.4c-7.4,25.8-17.9,50.5-26.9,75.8c-11.4,32.1-24.6,63.6-35,96.1c-1.7,5.4-2.9,11.1-6.5,15.8
	c-5,6.6-5.1,14.1-4.2,21.9c0.4,3.4,0.1,7.1,1.3,10.1c14.5,34.8,35.3,64.8,66.5,86.9c14,10,29.7,16.6,44.8,24.5
	c4.1,2.1,7.1,4.3,6,9.8c-9.1,45-18.2,90-27.1,135c-0.9,4.3-2.8,5.7-6.9,5.6c-7.4-0.1-14.8-0.1-22.3,0c-3.2,0-6.6,0-7.2,4.2
	c-0.8,6.2-3.6,12-3.1,18.5c-0.1,2.4,1.8,3,3.4,3.1c13.6,0.9,27.2,2.4,40.7-0.9c9-1,17.4-4.4,20.6-13.1c4.6-12.7,9-25.9,10.7-39.3
	c2-16.3,4.2-32.6,7.7-48.6c1-4.4,1.4-8.4-1.4-12.2c0.3-1.1,0.6-2.2,1-3.4c8.8-21.8,12.2-44.8,15.9-67.8c0.6-3.7-1.5-6.2-5.1-8
	c-24.9-12.3-48.8-26.5-71.6-42.3c-2.4-1.6-4.8-3.1-7.9-2.6l-0.2-0.1c1.3-10.9-8.2-14.8-13.9-21.1c-11.5-12.5-24.1-24.8-17.6-44.1
	c7.9-23.7,16.4-47.3,25.2-70.7c7.5-19.9,14.3-40,20.4-60.3c1.3-4.4,2.9-8.7,2-13.4l0.5-2.2c9-2.6,6.7-10.9,8.5-17.1l6.1-1l-0.2,0.4
	l-0.4-0.2l2.5,2.2c0.5,0.1,0.9,0.6,0.9,1.1c2.6,11.3,10,18.8,19.6,24.5c6.1,7.5,12.4,14.9,18.2,22.6c3.2,4.2,7,5.9,12.4,5.8
	c20.6-0.3,41.1-0.8,61.7,0.1c14.7,0.6,27.7-0.7,36.3-14.4c7.6-1.6,11.6-6.5,12.5-14l-0.1,0.1c12.5-5.1,21-13.9,24.2-27.2l0.1-0.1
	c5.4-0.2,8.4,2.5,9.4,7.8c0.9,4.8,1.9,9.7,7.8,11.1c0.3,0.3,0.4,0.7,0.3,1.1c0.5,3.4,0.5,6.9,1.4,10.1
	c11.8,41.7,28.6,81.8,42.8,122.7c4.4,12.7,1.2,21.8-4.5,32c-4.1,7.3-12.2,12.4-12.3,21.9c0.1,0.3-0.1,0.7-0.4,0.9
	c-4.4,0.4-7.4,2.5-8.5,6.9l-1.4,3.8l0.1,0c-3.5-0.3-6.9,1.2-9.2,3.9c-8.8,10.8-22.4,15.5-31.6,25.6c-2.9,3.2-7,4.7-11.2,6
	c-12.1,3.7-21.3,13.2-33.7,16.5c-2.3,0.6-3.2,3.1-3.8,5.4c-0.6,2-1.2,4-1.8,5.9c-3.5,1.9-2.1,5-1.7,7.6c2.3,14.9,4.1,29.9,7.4,44.5
	c1.7,7.8,1.2,16.7,7.4,23.1c0.2,1.1,0.4,2.3,0.7,3.4c-2.1,3.4-1.7,7.1-1.1,10.8c4,24.2,7.5,48.4,12,72.4c1.8,9.6,5.5,20.4,16.3,22.2
	c17.9,3,36.3,2.8,54.5,2c4.7-0.2,9.1-2.1,9-8.2l-0.1,0.1c8.1-3.2,6.4-10.2,4-15.1c-7.7-15.8-11.5-32.8-15.3-49.5
	c-4.9-21.8-9.4-44-1-66.4c4.9-13.1,11.9-24.2,24.1-30.7c7.7-4.1,16.4-6.7,25-8.6c15.8-3.5,28.5,3.5,36.8,17.5
	c3.7,6.2,3.5,13.8,8.4,19.3c0.2,1.1,0.3,2.3,0.5,3.4c0,0.6,0.1,1.2,0.1,1.8c0,1.1,0,2.2,0,3.3c-2.2,2.2-3.7,5.1-4,8.3
	c-0.3,7-3.9,13.6-9.7,17.5c-1.8,1.1-3.1,3-3.5,5.1l0,0l-1.7,1.8l-3.3,1.7c-2.5,0.3-5.1,0.6-7.6,0.8c-15.4,1.2-22.4-5.7-23.5-21
	c-1-13.3,6-20.6,16.5-26c5.6-2.9,7.5-6.3,2.8-11.1c-6.1-6.1-20.7-2.1-23.9,6.3l0.2-0.1c-8.2,1.6-19.7,22.5-16.5,30.1
	c0.4,0.9,1.6,1.5,2.5,2.2l0.4,3.3c-3.3,3-4.5,6.5-2.7,10.8c7.1,16.7,18.1,28.3,37.4,30.2c16.9,1.7,33.7,0.4,44.6-13.5
	c14-17.8,16.7-39.4,13.9-61.7c-0.4-2.9-1.6-5.5-4.5-6.8l-2-1.7c-0.1-1.4-0.2-2.7-1.5-3.5c-0.5-0.8-1-1.6-1.5-2.4
	c0.6-1.7-0.1-3.6-1.6-4.7c-0.3-2.3-1.6-4.3-3.6-5.5l-1.8-2.9c-0.5-1.7-1.7-3.1-3.3-3.8l0.1,0.1c-0.8-2.6-2.7-4.7-5.2-5.9
	c-2.2-2.5-4.9-4.6-8-6l-2.7-1.8L760.2,463z M819.5,612.2c-0.2-1.8-0.6-3.6-2.9-3.3c-2,0.2-2.7,2-2.7,3.7s0.7,3.5,2.9,3.3
	S819.4,614,819.5,612.2z"/>
<path class="st3" d="M228.6,327.6c2.3,5.9,1.1,13,5.9,18.2c0.6,0.9,0.8,2.1,0.3,3.2c-5.8,7.6-6.1,18.1-13.2,24.9v-8.6
	c4-8.2,3.6-17,3.2-25.7C227.5,336.1,225.5,331,228.6,327.6z"/>
<path class="st4" d="M784.3,488.6c1.5,1,2.1,2.9,1.6,4.7c0.5,0.8,1,1.6,1.5,2.4c1.3,0.9,1.4,2.2,1.5,3.5c-1.2,3.3,0.3,5.9,2.1,8.5
	c1.1,2.1,1.6,4.4,1.4,6.8c-0.8,1-0.7,2.5,0.2,3.5c-0.1,3.4-0.2,6.8-0.3,10.2c-4,3.2-2.7,7.5-2.3,11.5c-0.3,1.3-0.6,2.7-1,4
	c-0.5,1.1-0.9,2.3-1.4,3.4c-0.7,1.7-1.3,3.4-2,5.1c-2,1-3.2,3.1-3.1,5.3c-0.6,1.1-1.1,2.2-1.7,3.4l-1.5,2.2h0.4
	c-2.7,0.3-3.8,2-4.1,4.5c-4.1,5-8.5,9.6-15.5,10.2c-7.4-0.7-14.9-1.9-22.3,0.2c-1.1-0.2-2.2-0.3-3.3-0.5c-1.9-6.1-7-4.1-11.2-4.3
	l-2.7-1.6c-0.9-3.9,0.9-10.7-7.3-6.8c-4.2-3.7-7.1-8.6-8.2-14.1c-0.2-0.5-0.3-1-0.5-1.5c-0.2-1.2-0.5-2.5-0.7-3.7
	c1.8-3.2,1.6-7.1-0.3-10.2c-0.2-6.1,1.6-12.1,5.2-17.1l1.3-2.2l-0.4,0.3c0.7-1.2,1.5-2.4,2.2-3.6l1.2-1.5l2.5-2.9
	c0.1-0.6,0.2-1.1,0.4-1.7l-0.2,0.1l3-0.9l5.5,7.3c-2.8,3.8-5.9,7.3-7.2,11.9c-3.2,1.7-3.4,4.1-1.5,6.9c0,3.4,0,6.8,0.1,10.2
	c-1.8,2.9-0.3,5,1.6,7l3.6,6.2c4.5,10.3,22.8,14.3,32.4,7.1l2-0.2c2,0.1,3.9-1,4.7-2.9l0,0c7-0.5,10.9-3.8,9.9-11.3
	c1.8-8.2,5.5-16,3.9-24.8c0-1.1,0-2.2,0-3.3c0-0.6-0.1-1.2-0.1-1.8c-0.2-1.1-0.3-2.3-0.5-3.4c0.9-6.8-2.6-13-3.1-19.6
	c-0.6-1.5-1.2-3.1-1.8-4.6l-8.2-10.2l-1.9-1.6l-11.7-4.5c-1-1.5-2.2-1.6-3.6-0.6l-13.6-0.2c-0.9-0.9-2.3-0.9-3.2,0
	c-0.1,0.1-0.2,0.3-0.3,0.4l-6.8,1.2c-10.1-1.5-17.6,1.7-20.5,8.8l-8.5,6.8l-1.8,1.8c-14.8,16.4-17.9,36.1-16.8,57.3
	c1.6,28.8,9.8,56,19.9,82.8c2,5.5,2.6,10.4,0,15.6l0.1-0.1c-4.9,4-10.5,5.2-16.8,5c-10.3-0.3-20.5-0.1-30.8-0.2
	c-18-0.1-25.8-7.2-28.8-24.9c-4.5-26.6-9.6-52.9-14.4-79.2c-0.2-1.1-0.5-2.3-0.7-3.4c-3.4-25.3-8-50.4-13.1-75.3
	c0.6-2,1.2-4,1.8-5.9c34.7-11.5,64.8-30.3,89.5-57.4l-0.1,0l1.7-1.5c3.4-2.4,6.2-5.5,8.2-9.2c0.3-0.2,0.4-0.5,0.4-0.9
	c10.5-9.9,17.2-22.5,23.9-35c2-3.7,0.9-7-0.4-10.6c-10.5-29.4-20.6-59-31.4-88.4c-6.5-17.5-11.4-35.7-19.5-52.6
	c0.1-0.4-0.1-0.8-0.3-1.1c-1.3-8.1-5.1-15.5-7.6-23.2c-1.1-3.4-2.9-5-5.6-1.2c-1.3,1.8-2.6,3.7-3.9,5.5l-0.1,0.1
	c-8.7,8.5-17.1,17.3-24.2,27.2l0.1-0.1c-5,3.9-9.2,8.6-12.5,14c-8.6,13.7-21.6,15-36.3,14.4c-20.5-0.9-41.1-0.4-61.7-0.1
	c-5.4,0.1-9.1-1.6-12.4-5.8c-5.9-7.7-12.1-15.1-18.2-22.6c-5.6-8.8-12.2-17.1-19.5-24.5c0-0.5-0.4-1-0.9-1.1
	c-0.3-1.2-1.3-2.1-2.5-2.2l0.4,0.2l0.2-0.4c-1.1-2.5-2.2-5.9-5.2-5.9c-3.7,0-2.5,4.2-3.6,6.5c-2.7,5.6-4.7,11.4-5.9,17.5l-0.5,2.2
	c-0.4,0.4-0.7,0.8-1,1.3c-17.4,50-34.8,100-52.1,149.9c-1.1,3.3-0.5,6,0.6,9c7.3,20.1,20.2,36.1,36.7,49.4l0.2,0.1
	c20.2,19.4,44.4,32.6,69.4,44.5c11.6,5.6,11.5,5.1,9.5,17.4c-3.2,19.6-8.3,38.9-10,58.8l-1,3.4c-0.5,1-0.9,2.1-1.2,3.2
	c-4.8,26-10,52-14.1,78.1c-2.3,14.5-7.9,25.3-22.6,30l-43.8-0.2c-0.5-6.4,2.3-12.3,3.1-18.4c0.6-4.3,4-4.2,7.2-4.2
	c7.4,0,14.8-0.1,22.3,0c4,0.1,6-1.3,6.9-5.6c8.9-45,17.9-90,27.1-135c1.1-5.5-1.9-7.6-6-9.8c-15.1-7.9-30.8-14.5-44.8-24.5
	c-31.1-22.2-51.9-52.2-66.5-87c-1.3-3-0.9-6.7-1.3-10.1c6.3-17.1,12.7-34.2,19-51.3c19.6-53,38.6-106.2,59.5-158.7
	c1.9-4.7,3.5-9.7,9.9-10.5s9.8,3.1,13,7.8c15.6,22.9,31.2,45.8,46.9,68.6c2.1,3,3.5,6.8,8.1,6.8c21.7-0.3,43.4,1.1,65-0.7
	c9.7-9.2,17-20.4,24.9-31.1c0.5-0.1,0.9-0.6,0.9-1.1l30.8-38.6l-0.1,0.1c2.7-2.9,5.4-5.8,8.2-8.6c6.9-7.1,13.8-5.8,18,3.3
	c1.8,3.9,3.1,7.9,4.7,11.9c9.2,22.9,16.6,46.6,26.8,69.1h-0.1c1.1,3.8,2.1,7.7,3.5,11.4c14.2,38.5,28.9,76.8,41.6,115.8
	c1.2,3.7,1.9,7.1,0,10.7c-7.3,14.2-14,28.7-23.7,41.5c-24.7,32.7-57,55.5-94.3,71.6c-5.3,2.3-6.5,4.7-5.6,10.1
	c3.1,17.7,5.5,35.5,8.5,53.2c3.7,21.3,5.8,42.9,10.7,64c0,1.1,0,2.3,0.1,3.4c2,23.1,2,22.8,25.1,23.1c6.6,0.1,7.1-2.5,5.6-7.5
	c0.1-0.2,0.2-0.4,0.2-0.6c-0.1-0.4-0.3-0.7-0.5-1.1l-2.4-3.3l0.2,0.4l-1.2-10.5c-0.2-4.3,1.5-9.1-3.1-12.4c-0.5-1.2-1-2.5-1.5-3.8
	l-0.4-4.8c0.8-0.9,0.7-2.4-0.2-3.2c-0.2-0.1-0.3-0.3-0.5-0.3l-0.8-5.1c1.3-2.7,0-4.8-1.6-6.8c-0.1-2.3-0.3-4.6-0.4-6.8
	c1.7-2.6,1.8-5-1-7c-0.1-1.1-0.3-2.2-0.4-3.3c0.8-1,0.8-2.5,0-3.5c-0.3-1.8-0.6-3.5-0.9-5.3c0.3,0.1,0.6,0.2,0.9,0.2
	c2-4.3,2.1-9.3,0.1-13.7c0-2.1-0.1-4.1-0.1-6.2l1.3-2.2c0-0.8,0-1.5,0-2.3l0.8-4.7c2.1-1.2,2.8-2.9,1.4-5.2c0.2-1.1,0.5-2.3,0.7-3.4
	c4.4-3.6,5.7-8.5,5.6-14l1.2-3.2c5.7-1.6,9.8-4.7,10.3-11.1l0.3,0.5l-0.5-0.5c3.2,0.2,5-1.5,5.8-4.5c1.2-1.1,2.3-2.2,3.5-3.3
	c3.7-0.3,7.1-1.2,8.6-5.1c0.8-0.8,1.7-1.6,2.5-2.4l0.3,0.1l2.5-1c1.8,0.1,3.6-0.6,5-1.9c2.7-2.4,6.1-2.9,9.5-3.6
	c2.8,0.3,5.6,0.3,7.8-1.9l3.4-0.9c5.7,1.9,11.5,2.1,17.1-0.3l3.5-0.4c-0.2,0.3-0.3,0.6-0.3,0.9c0.7,1.6,1.8,2.3,3.6,1.4
	c4.8-0.1,8.4,2.6,12.1,5.1l1.9,1.4l-0.2-0.1l2.7,1.8c3.1,1.4,5.8,3.5,8,6c0.2,3.3,1.8,5.4,5.2,5.9l-0.1-0.1c0.3,1.8,1.6,3.3,3.3,3.8
	l1.8,2.9C780.8,485.7,781.7,487.7,784.3,488.6z"/>
<path class="st5" d="M635,603.6c-4.9-21.1-7-42.7-10.7-64c-3.1-17.7-5.4-35.5-8.5-53.2c-1-5.4,0.2-7.9,5.6-10.1
	c37.3-16.1,69.5-38.9,94.3-71.6c9.7-12.8,16.4-27.3,23.7-41.5c1.9-3.6,1.2-7.1,0-10.7c-12.7-39-27.4-77.4-41.6-115.8
	c-1.4-3.7-2.3-7.6-3.5-11.4c2.9,0.6,4,2.8,5,5.3c13.5,36.1,27.1,72.1,40.5,108.3c5.3,14.4,3.9,27.8-4.3,41.5
	c-9.2,15.3-18.4,30.7-29.4,44.6c-6.1,7.8-15.3,13.2-23.1,19.6c-2.2,1.8-4.6,3.4-5.4,6.4L676,451c-8.8,7.8-20.8,10.6-29.3,18.8
	c-8-0.5-12.3,6.8-19.1,8.8c-4.6,1.3-6,4.4-5.8,9.1c0.7,19.4,5.5,38.2,6.9,57.5c1.4,19.1,8.3,37.3,8,56.6L635,603.6z"/>
<path class="st6" d="M580.1,220.2c-21.7,1.8-43.4,0.4-65,0.7c-4.6,0.1-6-3.8-8.1-6.8c-15.7-22.9-31.4-45.7-47-68.6
	c-3.2-4.7-6.4-8.6-13-7.8c-6.6,0.8-8.1,5.8-9.9,10.5c-20.8,52.5-39.9,105.7-59.5,158.7c-6.3,17.1-12.6,34.2-19,51.3
	c-0.9-7.7-0.9-15.3,4.2-21.9c3.6-4.7,4.7-10.4,6.4-15.8c10.4-32.5,23.6-64,35-96.1c8.9-25.3,19.5-49.9,26.9-75.8
	c1.9-7.1,7.4-12.6,14.5-14.4c8-2.2,13.1,2.2,17.6,8.8c15.8,23.6,32,46.9,47.9,70.4c2.7,4,6.3,4.4,10.4,4.4c19.4,0,38.8,0.1,58.3,0.1
	C579.9,218.8,580,219.5,580.1,220.2z"/>
<path class="st7" d="M729.1,473.3l13.6,0.2l3.6,0.6l11.7,4.5l1.9,1.6l8.2,10.2c-0.1,1.7,0.5,3.4,1.8,4.6c0.5,6.6,4.1,12.7,3.1,19.6
	c-4.9-5.5-4.7-13.1-8.4-19.3c-8.3-14-21-21-36.8-17.5c-8.6,1.9-17.3,4.5-25,8.6c-12.2,6.5-19.2,17.6-24.1,30.7
	c-8.4,22.5-3.9,44.6,1,66.4c3.8,16.8,7.6,33.8,15.3,49.5c2.4,5,4.1,11.9-4,15.1c2.6-5.2,2.1-10.1,0-15.6c-10-26.8-18.3-54-19.9-82.8
	c-1.2-21.2,2-40.9,16.8-57.3l1.8-1.8l8.5-6.8l20.5-8.8l6.8-1.2C726.7,474.4,728.1,474.2,729.1,473.3z"/>
<path class="st5" d="M424.5,417.7c-16.5-13.3-29.4-29.3-36.7-49.4c-1.1-3-1.8-5.7-0.6-9c17.4-50,34.8-99.9,52.1-149.9
	c0.3-0.5,0.6-0.9,1-1.3c0.9,4.7-0.7,9-2,13.4c-6.1,20.4-12.8,40.5-20.3,60.4c-8.8,23.4-17.2,47-25.2,70.7
	c-6.4,19.3,6.1,31.6,17.6,44.1C416.4,402.9,425.9,406.8,424.5,417.7z"/>
<path class="st6" d="M660.8,208.7c8,17,13,35.1,19.5,52.6c10.8,29.3,20.9,58.9,31.4,88.4c1.3,3.6,2.4,6.9,0.4,10.6
	c-6.7,12.6-13.3,25.1-23.9,35c0.1-9.5,8.2-14.6,12.3-21.9c5.7-10.2,9-19.3,4.5-32c-14.2-40.9-31-80.9-42.8-122.7
	C661.3,215.6,661.3,212.1,660.8,208.7z"/>
<path class="st5" d="M493.5,538.5c1.7-19.9,6.8-39.2,10-58.8c2-12.3,2.2-11.9-9.5-17.4c-25-11.9-49.2-25-69.4-44.5
	c3.1-0.5,5.5,0.9,7.9,2.6c22.8,15.9,46.7,30,71.6,42.3c3.5,1.8,5.7,4.3,5.1,8C505.7,493.7,502.4,516.8,493.5,538.5z"/>
<path class="st8" d="M703.8,545.3c0.2,1.2,0.5,2.5,0.7,3.7c-0.2,0.6,0,1.2,0.5,1.5c1.1,5.5,4,10.4,8.2,14.1c1.3,3.4,4.2,5.2,7.3,6.8
	l2.8,1.7c3.1,3.1,6.7,4.8,11.2,4.3c1.1,0.2,2.2,0.4,3.3,0.5c7.4,2.2,14.9,3,22.3-0.2c7-0.6,11.3-5.2,15.5-10.2
	c1.9-1,3.3-2.6,4.1-4.5h-0.4c0.5-0.8,1-1.5,1.5-2.2c0.6-1.1,1.1-2.2,1.7-3.4c2-1.2,3.4-2.7,3.1-5.3c0.7-1.7,1.3-3.4,2-5.1
	c1.1-0.8,1.7-2.1,1.4-3.4c0.3-1.3,0.6-2.7,1-4c1.9-3.5,2.7-7.5,2.3-11.5c0.1-3.4,0.2-6.8,0.3-10.2c0-1.2-0.1-2.3-0.2-3.5
	c0.2-2.4-0.2-4.7-1.4-6.8c0-2.3,0-4.6,0-6.8c2.9,1.3,4.2,3.9,4.5,6.8c2.8,22.2,0.1,43.9-13.9,61.7c-10.9,13.9-27.7,15.2-44.6,13.5
	c-19.3-1.9-30.3-13.5-37.4-30.2c-1.8-4.2-0.6-7.8,2.7-10.8C702.7,543,703.2,544.1,703.8,545.3z"/>
<path class="st7" d="M600.5,548.8c4.8,26.4,9.8,52.7,14.3,79.1c3,17.6,10.8,24.7,28.8,24.9c10.3,0.1,20.6-0.2,30.8,0.2
	c6.3,0.2,11.9-1,16.8-5c0.1,6.1-4.3,8-9,8.2c-18.2,0.8-36.6,1-54.5-2c-10.8-1.7-14.5-12.5-16.2-22.1c-4.5-24-8.1-48.3-12-72.4
	C598.8,556,598.4,552.3,600.5,548.8z"/>
<path class="st8" d="M718.7,505.5l-3,0.9c3.2-8.4,17.9-12.5,23.9-6.3c4.7,4.8,2.8,8.3-2.8,11.1c-10.5,5.4-17.5,12.7-16.5,26
	c1.1,15.3,8.1,22.2,23.5,21c2.5-0.2,5.1-0.5,7.6-0.8c0,1.4-0.1,2.8-0.1,4.2c-11.5,3.8-21.5,0.6-30.6-6.5l-3.6-6.2
	c-0.5-2.3-1.1-4.6-1.6-7c0-3.4,0-6.8-0.1-10.2c1-2.2,2-4.4,1.5-6.9c1.3-4.6,4.4-8.2,7.2-11.9l11.4-7.2
	C728.3,500.8,726.8,500.9,718.7,505.5z"/>
<path class="st5" d="M454.7,653.1c14.7-4.6,20.3-15.5,22.6-30c4.1-26.1,9.3-52.1,14.1-78.1c0.3-1.1,0.7-2.2,1.2-3.2
	c2.7,3.8,2.3,7.8,1.4,12.2c-3.5,16.1-5.7,32.3-7.7,48.6c-1.7,13.3-6.1,26.5-10.7,39.3c-3.2,8.7-11.6,12-20.6,13.1L454.7,653.1z"/>
<path class="st5" d="M694.3,225.2c-10.2-22.5-17.6-46.1-26.8-69.1c-1.6-4-2.9-8-4.7-11.9c-4.1-9.2-11-10.4-18-3.3
	c-2.8,2.8-5.5,5.7-8.2,8.6c2.7-10.6,8.8-16.5,16.9-16.3c7.2,0.1,13.4,6,15.8,15.7c2.2,8.9,5.8,17.3,10.6,25.1
	c3,4.9,3.9,10.3,4.5,15.4C686,201.9,696.1,211.9,694.3,225.2z"/>
<path class="st7" d="M678,406.8c-24.7,27.1-54.8,45.8-89.5,57.4c0.6-2.3,1.6-4.8,3.8-5.4c12.4-3.2,21.6-12.7,33.7-16.5
	c4.2-1.3,8.3-2.9,11.2-6c9.2-10.2,22.8-14.9,31.6-25.6C671.1,408,674.5,406.5,678,406.8z"/>
<path class="st8" d="M693.9,464.1c-0.8,0.8-1.6,1.6-2.5,2.4c-3.5,0.6-6.7,1.9-8.6,5.1c-1.2,1.1-2.3,2.2-3.5,3.3
	c-3.1-0.1-4.5,2.2-5.8,4.5l0.3,0.5l-0.3-0.5c-4.1,3.1-8.2,6.2-10.3,11.1l-1.2,3.2c-3.5,4-5.7,8.5-5.6,14c-0.2,1.1-0.5,2.3-0.7,3.4
	c-2.5,1.1-1.5,3.3-1.4,5.1l-0.8,4.7c-0.5,0.1-1,0.2-1.5,0.3c-3.2-11-0.6-20.6,6.7-29.2c0.3-3.7,1.5-7.2,3.5-10.3
	c2.6-0.9,3.6-3.2,5.1-5.1c5.2-1.6,8.6-5.2,10.4-10.2h1.6C684.1,464.9,688.5,461.8,693.9,464.1z"/>
<path class="st7" d="M586.7,470.1c5.1,25,9.7,50.1,13.1,75.3c-6.2-6.5-5.6-15.3-7.4-23.1c-3.2-14.7-5.1-29.7-7.4-44.5
	C584.7,475.1,583.3,472,586.7,470.1z"/>
<path class="st9" d="M679.4,466.5h-1.6c-5.8,1-9.6,4.1-10.4,10.2c-1.5,1.9-2.6,4.3-5.1,5.1c-2.2-6.3-0.6-11.5,4.3-16.1
	c4.3-4.1,7.6-9.2,9.5-14.9l1.5-0.1c2.6,0,5.8-2,7.5,1.4c1.5,2.9-0.5,5.3-2,7.7C681.7,462.1,680.6,464.4,679.4,466.5z"/>
<path class="st5" d="M636.7,149.4L605.9,188c2.2-10.3,8.5-18.3,15.6-25.4C626.2,158,627.7,149.1,636.7,149.4z"/>
<path class="st8" d="M722.3,454.8l-3.4,0.9c-2.8-0.5-5.6,0.2-7.8,1.9c-3.3,0.7-6.8,1.2-9.5,3.6c-1.7,0.6-4-0.5-5,1.9l-2.5,1
	c-0.8-3.2-0.9-6.3,3-7.6c13.5-4.6,27.4-6.7,41.6-5c1.5,0.2,2.8,1.7,4.1,2.6l-3.5,0.4C733.7,453.4,728,453.1,722.3,454.8z"/>
<path class="st5" d="M580.1,220.2c-0.1-0.7-0.2-1.4-0.3-2.1c2.9-11.3,13.7-17.2,18.9-27c1.1-2.1,3.9-2,6.2-1.9
	C597.2,199.8,589.9,211,580.1,220.2z"/>
<path class="st6" d="M619,215.9c7.1-9.9,15.5-18.7,24.2-27.2C640,202.1,631.6,210.8,619,215.9z"/>
<path class="st10" d="M815.2,626.1c-3.2,4.8-7.3,9-12,12.3c-0.7-3-1.2-6-2-9c-1.3-5,1.7-8.4,5.3-10.4c4.4-2.4,4.4,2.8,6.2,4.8
	C813.5,624.7,814.4,625.4,815.2,626.1z"/>
<path class="st6" d="M643.3,188.6c1.3-1.8,2.6-3.7,3.9-5.5c2.8-3.8,4.5-2.2,5.6,1.2c2.6,7.7,6.3,15.1,7.6,23.2
	c-5.9-1.4-6.9-6.4-7.8-11.1C651.7,191.1,648.8,188.4,643.3,188.6z"/>
<path class="st8" d="M708.6,518c-3.6,5-5.4,11-5.2,17.1c-0.5,1.2-1.1,2.3-1.6,3.4c-0.8-0.7-2.1-1.2-2.5-2.2
	c-3.2-7.6,8.3-28.5,16.5-30.1c-0.1,0.6-0.2,1.1-0.4,1.7l-2.5,2.9l-1.2,1.5c-1.3,0.8-2.1,2.1-2.2,3.6l0.4-0.3L708.6,518z"/>
<path class="st8" d="M454.7,653.1l0.2,2c-13.5,3.3-27.1,1.8-40.7,0.9c-1.6-0.1-3.5-0.7-3.4-3.1L454.7,653.1z"/>
<path class="st7" d="M773.7,523c1.7,8.7-2.1,16.6-3.9,24.8l-3.4,3.4l-6.4-2.3c5.8-4,9.4-10.5,9.7-17.5
	C770.1,528.2,771.5,525.2,773.7,523z"/>
<path class="st6" d="M458.5,191.3c7.4,7.5,13.9,15.7,19.6,24.5C468.5,210.1,461.1,202.6,458.5,191.3z"/>
<path class="st3" d="M792.8,648.3c-2.2,3.2-4.8,5.9-8.7,7.2c-0.6-4-9.2-5-5.1-10.1c3.8-4.7,7.2,2.3,11.2,2.5
	C791.1,648,792,648.1,792.8,648.3z"/>
<path class="st10" d="M803.3,638.4c-1.7,2.8-4.1,5-7,6.6l-2.1-0.2c-0.7-1.2-1.5-2.4-2.1-3.6c-1-2.2-0.9-4.5,0.9-6.2
	c2.4-2.3,3.9,0.2,5.7,1.3C800.2,637.2,801.7,637.8,803.3,638.4z"/>
<path class="st5" d="M441,205.8c1.2-6.1,3.2-11.9,5.9-17.5l2.7,0.4C447.7,195,449.9,203.2,441,205.8z"/>
<path class="st6" d="M606.6,229.9c3.3-5.4,7.6-10.1,12.5-14C618.1,223.4,614.2,228.3,606.6,229.9z"/>
<path class="st7" d="M751.4,561.6c0-1.4,0.1-2.8,0.1-4.2l3.4-1.7c0.5-0.6,1.1-1.2,1.7-1.8l0,0l6.7,0.8l-3.3,4.3l0,0l-4.7,2.9l-2,0.2
	L751.4,561.6z"/>
<path class="st6" d="M449.5,188.7l-2.7-0.4c1.1-2.3-0.1-6.4,3.6-6.5c2.9,0,4,3.4,5.2,5.9L449.5,188.7z"/>
<path class="st6" d="M687.9,396.2c-2,3.7-4.8,6.8-8.2,9.2c-0.1-0.7-0.2-1.5-0.3-2.2C680.5,398.7,683.5,396.6,687.9,396.2z"/>
<path class="st8" d="M763.3,554.8l-6.7-0.8c0.4-2.1,1.7-4,3.5-5.1l6.4,2.3C765.5,552.4,764.4,553.6,763.3,554.8z"/>
<path class="st11" d="M701.9,538.5c0.5-1.2,1-2.3,1.6-3.4c2,3.1,2.1,7,0.3,10.2c-0.5-1.2-1-2.3-1.5-3.5L701.9,538.5z"/>
<path class="st11" d="M775.8,476.5c-3.4-0.5-5-2.5-5.2-5.9C773.1,471.8,775,473.9,775.8,476.5z"/>
<path class="st12" d="M790.8,500.9c0,2.3,0,4.5,0,6.8c-1.8-2.6-3.2-5.2-2.1-8.5L790.8,500.9z"/>
<path class="st11" d="M784.3,488.6c-2.7-0.9-3.6-2.9-3.6-5.5C782.8,484.3,784.1,486.3,784.3,488.6z"/>
<path class="st12" d="M746.2,456.5c-1.7,0.9-2.8,0.2-3.6-1.4L746.2,456.5z"/>
<path class="st11" d="M779,480.2c-1.7-0.5-3-2-3.3-3.8C777.3,477.1,778.5,478.5,779,480.2z"/>
<path class="st7" d="M679.4,403.1c0.1,0.8,0.2,1.5,0.3,2.2l-1.7,1.5L679.4,403.1z"/>
<path class="st11" d="M762.7,464.7l-2.7-1.8L762.7,464.7z"/>
<path class="st11" d="M760.2,463l-1.9-1.4L760.2,463z"/>
<path class="st8" d="M756.5,554c-0.5,0.6-1.1,1.2-1.7,1.8L756.5,554z"/>
<path class="st4" d="M232,309l1.2-1.9L232,309z"/>
<path class="st6" d="M455.1,188c1.2,0.1,2.2,1,2.5,2.2L455.1,188z"/>
<path class="st12" d="M787.3,495.7c-0.5-0.8-1-1.6-1.5-2.4L787.3,495.7z"/>
<path class="st3" d="M794.3,644.8l2.1,0.2l-2,1.8C794.3,646.2,794.3,645.5,794.3,644.8z"/>
<path class="st7" d="M773.6,517.9c0,0.6,0.1,1.2,0.1,1.8C773.7,519.1,773.7,518.5,773.6,517.9z"/>
<path class="st9" d="M658.7,492.2c-7.3,8.6-10,18.2-6.7,29.2c-0.1,0.5-0.1,1,0,1.5c0.1,0.9,0.1,1.7,0.2,2.6c0,2.1,0.1,4.1,0.1,6.2
	c-1.1,4.5-1.1,9.2-0.1,13.7c-0.3,0-0.6-0.1-0.9-0.2c-1.8,1.5-2.7,3.7-2.7,6c-0.4,10.8,1.9,21.2,3.8,31.7c0.3,1.8,1.8,2.8,3.4,3.5
	c0.4,0.1,0.9,0.1,1.3,0.1l0.4,4.8c-2.7,4.4-2.8,8.2,2.6,10.7c0.2,1.7,0.3,3.4,0.5,5.1c-2.8,4.5-0.7,7.9,2.7,11c0,0-0.2-0.4-0.3-0.4
	c-0.9,9.7-8.1,8.4-14.6,8.3c-7.1-0.2-7.7-5.3-8.3-10.7c-0.5-4.6,1.5-9.9-3.4-13.4c0.2-19.3-6.7-37.5-8-56.6
	c-1.4-19.2-6.1-38.1-6.8-57.5c-0.2-4.7,1.3-7.8,5.8-9.1c6.8-2,11.2-9.3,19.1-8.8c4.8,3,9,5.7,6,12.8
	C650.7,487.3,653.9,490.8,658.7,492.2z"/>
<path class="st8" d="M636.7,601.8c4.9,3.5,2.8,8.8,3.4,13.4c0.6,5.3,1.2,10.5,8.3,10.7c6.5,0.1,13.7,1.4,14.7-8.3l2.4,3.3
	c0.1,0.5,0.2,1.1,0.3,1.7c1.5,5,1.1,7.6-5.6,7.5c-23-0.2-23,0-25.1-23.1c-0.1-1.1-0.1-2.3-0.1-3.4L636.7,601.8z"/>
<path class="st8" d="M655.8,586.4c-1.6-0.7-3-1.7-3.4-3.5c-2-10.5-4.2-21-3.8-31.7c-0.1-2.3,0.9-4.5,2.7-6c0.3,1.8,0.6,3.5,0.9,5.3
	c0,1.2,0,2.3,0,3.5s0.3,2.2,0.4,3.3c0.4,2.3,0.7,4.7,1,7c0.1,2.3,0.3,4.6,0.4,6.8c-0.3,2.4,0.2,4.8,1.6,6.8l0.8,5.1
	C656.2,584.1,656,585.3,655.8,586.4z"/>
<path class="st11" d="M751.4,561.6l1.8,0.6c-9.6,7.2-27.9,3.2-32.4-7.1C729.9,562.3,739.9,565.4,751.4,561.6z"/>
<path class="st11" d="M718.7,505.5c8.1-4.7,9.6-4.7,16.9,0.2l-11.4,7.2L718.7,505.5z"/>
<path class="st11" d="M718.8,475l-20.5,8.8C701.2,476.8,708.7,473.6,718.8,475z"/>
<path class="st11" d="M759.9,577.8c-7.4,3.1-14.8,2.3-22.3,0.2C745.1,575.9,752.5,577.1,759.9,577.8z"/>
<path class="st11" d="M763.3,554.8c1.1-1.2,2.2-2.4,3.2-3.6l3.3-3.4c1,7.5-2.9,10.8-9.9,11.3L763.3,554.8z"/>
<path class="st12" d="M722.3,454.8c5.7-1.7,11.4-1.4,17.1-0.3C733.7,456.9,728,456.7,722.3,454.8z"/>
<path class="st12" d="M663.2,490.6c2.1-4.9,6.2-8,10.3-11.1C673,485.9,668.9,489,663.2,490.6z"/>
<path class="st12" d="M656.4,507.8c-0.1-5.5,2-10,5.6-14C662.2,499.3,660.8,504.1,656.4,507.8z"/>
<path class="st11" d="M720.4,571.5c-3.1-1.6-5.9-3.4-7.3-6.8C721.3,560.8,719.5,567.5,720.4,571.5z"/>
<path class="st11" d="M734.3,577.4c-4.5,0.5-8.1-1.2-11.2-4.3C727.4,573.3,732.4,571.3,734.3,577.4z"/>
<path class="st8" d="M660.1,602c-5.4-2.4-5.3-6.2-2.6-10.7c0.5,1.2,1,2.5,1.5,3.8C659.4,597.4,659.7,599.7,660.1,602z"/>
<path class="st8" d="M663.3,618c-3.4-3-5.5-6.4-2.7-11c0.5,0.2,1,0.3,1.5,0.4L663.3,618z"/>
<path class="st12" d="M662.1,607.4c-0.5-0.1-1-0.2-1.5-0.4c-0.2-1.7-0.3-3.4-0.5-5.1c-0.4-2.3-0.7-4.6-1.1-6.9
	C663.6,598.3,661.9,603.1,662.1,607.4z"/>
<path class="st12" d="M682.8,471.7c1.9-3.3,5-4.6,8.6-5.1C689.9,470.5,686.5,471.4,682.8,471.7z"/>
<path class="st12" d="M792,528.2c0.4,4-0.4,8-2.3,11.5C789.4,535.6,788.1,531.4,792,528.2z"/>
<path class="st12" d="M652.2,545.4c-1-4.5-0.9-9.2,0.1-13.7C654.2,536.1,654.2,541.1,652.2,545.4z"/>
<path class="st12" d="M653.6,564.3c-0.3-2.3-0.7-4.7-1-7C655.4,559.2,655.3,561.7,653.6,564.3z"/>
<path class="st11" d="M717,524.8c0.5,2.5-0.5,4.7-1.5,6.9C713.6,528.9,713.8,526.5,717,524.8z"/>
<path class="st12" d="M673.5,479.5c1.3-2.3,2.7-4.5,5.8-4.5C678.6,478,676.8,479.7,673.5,479.5z"/>
<path class="st12" d="M654.3,516.4c-0.1-1.9-1.1-4,1.4-5.1C657.1,513.4,656.5,515.1,654.3,516.4z"/>
<path class="st12" d="M711.1,457.6c2.2-1.7,5.1-2.4,7.8-1.9C716.7,457.9,713.9,457.9,711.1,457.6z"/>
<path class="st12" d="M655.6,577.9c-1.3-2-1.9-4.4-1.6-6.8C655.6,573.1,656.9,575.2,655.6,577.9z"/>
<path class="st11" d="M715.6,541.9c0.5,2.3,1.1,4.6,1.6,7C715.3,546.8,713.8,544.8,715.6,541.9z"/>
<path class="st11" d="M779.5,563.1c-0.8,1.9-2.2,3.5-4.1,4.5C775.7,565.2,776.8,563.4,779.5,563.1z"/>
<path class="st11" d="M785.4,552.2c0.3,2.5-1.2,4.1-3.1,5.3C782.2,555.3,783.5,553.2,785.4,552.2z"/>
<path class="st11" d="M755.2,562l4.7-2.9C759.1,560.9,757.2,562.1,755.2,562z"/>
<path class="st12" d="M655.8,586.4c0.2-1.2,0.4-2.3,0.6-3.4c1.1,0.5,1.6,1.9,1.1,3c-0.1,0.2-0.2,0.4-0.3,0.5
	C656.7,586.5,656.2,586.5,655.8,586.4z"/>
<path class="st11" d="M729.1,473.3c-1,0.8-2.4,1-3.5,0.5c0.6-1.1,2-1.4,3.1-0.8C728.8,473.1,729,473.2,729.1,473.3z"/>
<path class="st11" d="M746.3,474.1l-3.6-0.6C744.1,472.5,745.3,472.7,746.3,474.1z"/>
<path class="st12" d="M696.7,463.2c1-2.4,3.3-1.3,5-1.9C700.3,462.5,698.5,463.2,696.7,463.2z"/>
<path class="st11" d="M713,510.9l2.5-2.9L713,510.9z"/>
<path class="st11" d="M709.6,516.1c0.1-1.5,0.9-2.9,2.2-3.6C711.1,513.6,710.3,514.9,709.6,516.1z"/>
<path class="st12" d="M792.2,514.5c0,1.2,0.1,2.3,0.2,3.5C791.5,517,791.4,515.5,792.2,514.5z"/>
<path class="st12" d="M652.2,554c0-1.2,0-2.3,0-3.5C653,551.5,653,553,652.2,554z"/>
<path class="st11" d="M770,495c-1.3-1.2-2-2.9-1.8-4.6C768.8,491.9,769.4,493.4,770,495z"/>
<path class="st12" d="M788.8,543.7c0.3,1.3-0.3,2.7-1.4,3.4C787.9,546,788.3,544.8,788.8,543.7z"/>
<path class="st11" d="M708.6,518l1.3-2.2C709.5,516.5,709.1,517.2,708.6,518z"/>
<path class="st12" d="M652,523c-0.1-0.5-0.1-1,0-1.5c0.5-0.2,1-0.3,1.5-0.3c0,0.8,0,1.5,0,2.3C653,523.2,652.5,523.1,652,523z"/>
<path class="st8" d="M652,523c0.5,0.1,1,0.3,1.6,0.4l-1.3,2.2C652.1,524.7,652,523.8,652,523z"/>
<path class="st11" d="M780.6,560.8c-0.5,0.8-1,1.5-1.5,2.2C779.6,562.3,780.1,561.6,780.6,560.8z"/>
<path class="st11" d="M705,550.6c-0.5-0.4-0.7-1-0.5-1.5C704.6,549.5,704.8,550.1,705,550.6z"/>
<path class="st12" d="M665.7,622.6c-0.1-0.5-0.2-1.1-0.3-1.7c0.2,0.3,0.4,0.7,0.5,1.1C666,622.2,665.8,622.4,665.7,622.6z"/>
<path class="st11" d="M760,480.2l-1.9-1.6L760,480.2z"/>
<path class="st11" d="M689.9,490.6l-1.8,1.8L689.9,490.6z"/>
<path class="st2" d="M658.7,492.2c-4.8-1.5-8-4.9-6-9.6c3-7.2-1.2-9.9-6-12.8c8.5-8.2,20.5-11,29.3-18.8c-1.9,5.6-5.2,10.7-9.5,14.9
	c-4.8,4.6-6.5,9.7-4.3,16.1C660.2,485,659,488.5,658.7,492.2z"/>
<path class="st2" d="M667.4,476.8c0.8-6.1,4.6-9.2,10.4-10.2C675.9,471.6,672.6,475.2,667.4,476.8z"/>
</svg>
